<svg width="22" height="22" viewBox="0 0 22 22" fill="none" xmlns="http://www.w3.org/2000/svg">
<g clip-path="url(#clip0_93_4242)">
<path d="M16.0115 4.55384L17.7558 2.79344L19.2092 4.26017L17.4648 6.02057L16.0115 4.55384ZM18.7252 10.127H21.6318V12.0821H18.7252V10.127ZM10.0053 0.447372H11.9426V3.282H10.0053V0.447372ZM2.73873 4.26017L4.19204 2.79344L5.93639 4.55384L4.5795 5.92311L2.73873 4.26017ZM5.93639 17.6567L4.19204 19.4156L2.83382 18.0477L4.5795 16.2875L5.93639 17.6567ZM3.22273 12.0821H0.316048V10.127H3.22273V12.0821ZM10.9732 5.23704C14.1707 5.23704 16.7865 7.87827 16.7865 11.1039C16.7865 14.3308 14.1707 16.9706 10.9732 16.9706C7.77566 16.9706 5.16002 14.3308 5.16002 11.1039C5.16002 7.87827 7.77566 5.23704 10.9732 5.23704ZM11.9426 21.7632H10.0053V18.9272H11.9426V21.7632ZM19.2092 17.9489L17.7558 19.4156L16.0115 17.6567L17.3669 16.2874L19.2092 17.9489Z" fill="white"/>
</g>
<defs>
<clipPath id="clip0_93_4242">
<rect width="21.3158" height="21.3158" fill="white" transform="matrix(-1 0 0 1 21.6318 0.447372)"/>
</clipPath>
</defs>
</svg>
