<svg width="80" height="64" viewBox="0 0 80 64" fill="none" xmlns="http://www.w3.org/2000/svg">
<path d="M35.5 0.999996L35.5 0.499996L35 0.499996L5.00001 0.499994L4.50001 0.499993L4.50001 0.999993L4.5 31L4.5 31.5L5 31.5L17.755 31.5C16.7935 35.0099 14.9626 38.0536 12.2548 40.6383L12.2544 40.6387C9.26101 43.5019 5.47876 45.4634 0.888589 46.5126L0.500001 46.6014L0.500001 47L0.5 62L0.5 62.6113L1.09918 62.4901C12.3928 60.2044 20.9768 55.2181 26.7978 47.5029C32.6125 39.9294 35.5 30.215 35.5 18.4L35.5 0.999996ZM79.5 1L79.5 0.5L79 0.5L49 0.499997L48.5 0.499997L48.5 0.999997L48.5 31L48.5 31.5L49 31.5L61.755 31.5C60.7935 35.0099 58.9626 38.0536 56.2548 40.6383L56.2544 40.6387C53.261 43.5019 49.4788 45.4634 44.8886 46.5126L44.5 46.6014L44.5 47L44.5 62L44.5 62.6113L45.0992 62.4901C56.3929 60.2044 64.9769 55.2181 70.7979 47.5027C76.6125 39.9293 79.5 30.2149 79.5 18.4L79.5 1Z" stroke="#1059D3" stroke-opacity="0.3"/>
</svg>
