<svg width="24" height="24" viewBox="0 0 24 24" fill="none" xmlns="http://www.w3.org/2000/svg">
<g opacity="0.8">
<path d="M2.64014 12.48H21.1201V11.52H2.64014V12.48Z" fill="black"/>
<path d="M4.589 6.29413C4.78076 6.37189 4.59068 6.17581 4.9154 6.29413C5.56348 6.53028 6.21815 6.74796 6.8786 6.94693C8.96204 7.57405 10.6696 7.88533 12.0002 7.88533C13.3305 7.88533 15.0184 7.56973 17.0618 6.94453C17.7057 6.74749 18.3451 6.53029 18.9818 6.29413C19.2986 6.17653 19.1289 6.37141 19.3154 6.29413L19.6802 7.19413C19.4824 7.27621 19.644 7.07221 19.3154 7.19413C18.6644 7.43567 18.0065 7.65816 17.3426 7.86133C15.2083 8.51413 13.4282 8.84533 12.0026 8.84533C10.5772 8.84533 8.77676 8.52037 6.6026 7.86613C5.92519 7.66205 5.25371 7.43876 4.589 7.19653C4.253 7.07413 4.403 7.27885 4.2002 7.19653L4.589 6.29413ZM4.589 17.6711C4.78076 17.5931 4.59068 17.787 4.9154 17.6687C5.56724 17.4311 6.22196 17.2134 6.8786 17.0159C8.96204 16.3888 10.6696 16.0799 12.0002 16.0799C13.3305 16.0799 15.0184 16.3955 17.0618 17.0207C17.7057 17.2177 18.3451 17.4349 18.9818 17.6711C19.2986 17.7887 19.1289 17.5936 19.3154 17.6711L19.8002 17.0159C19.6024 16.9338 19.644 16.893 19.3154 16.7711C18.6644 16.5288 18.0066 16.3055 17.3426 16.1015C15.2083 15.4484 13.4282 15.1199 12.0026 15.1199C10.5772 15.1199 8.77676 15.4422 6.6026 16.0967C5.92517 16.3016 5.2537 16.5257 4.589 16.7687C4.253 16.8911 4.403 16.9384 4.2002 17.0207L4.589 17.6711Z" fill="black"/>
<path d="M11.9999 2.3999C17.3017 2.3999 21.5999 6.69806 21.5999 11.9999C21.5999 17.3017 17.3017 21.5999 11.9999 21.5999C6.69806 21.5999 2.3999 17.3017 2.3999 11.9999C2.3999 6.69806 6.69806 2.3999 11.9999 2.3999ZM11.9999 3.3251C7.20902 3.3251 3.3251 7.20902 3.3251 11.9999C3.3251 16.7908 7.20902 20.6747 11.9999 20.6747C16.7908 20.6747 20.6747 16.7908 20.6747 11.9999C20.6747 7.20902 16.7908 3.3251 11.9999 3.3251Z" fill="black"/>
<path d="M8.61912 4.09932C8.56056 4.2918 8.48712 4.55052 8.39856 4.87596C8.26256 5.37628 8.13512 5.87804 8.01624 6.38124L7.09392 6.11004C7.21184 5.61324 7.33792 5.11788 7.47216 4.62396C7.56336 4.28956 7.63944 4.02172 7.7004 3.82044L8.61912 4.09932ZM6.5892 8.54172C6.35768 9.87116 6.2412 11.0236 6.23976 11.9992C6.23848 12.9236 6.34168 14.0155 6.54936 15.2747L7.47408 14.9826C7.29008 13.8352 7.19864 12.8413 7.19976 12.0008C7.20104 11.1092 7.30536 10.0535 7.51272 8.8338L6.5892 8.54196V8.54172ZM7.9572 17.4452L7.03464 17.7167C7.1684 18.3026 7.31336 18.8876 7.46952 19.4718C7.56096 19.814 7.63776 20.0891 7.69992 20.2969L8.61984 20.0228C8.56032 19.8236 8.48616 19.5572 8.39688 19.2236C8.2388 18.6318 8.09232 18.0391 7.95744 17.4455L7.9572 17.4452ZM15.6012 4.11876C15.6598 4.31124 15.7332 4.56996 15.8218 4.89564C15.9536 5.38044 16.0774 5.86684 16.1933 6.35484L17.1154 6.08364C17.0006 5.6022 16.8782 5.1222 16.7482 4.64364C16.657 4.30924 16.5809 4.04132 16.5199 3.83988L15.6012 4.11876ZM17.623 8.51268L16.6994 8.80428C16.9122 10.0446 17.0194 11.1166 17.0208 12.0203C17.0219 12.8635 16.9298 13.8614 16.7446 15.014L17.6693 15.3061C17.8782 14.0418 17.9821 12.946 17.9808 12.0186C17.9792 11.0312 17.8599 9.8626 17.623 8.51268ZM17.1838 17.7455L16.261 17.4743C16.1269 18.0648 15.981 18.6545 15.8234 19.2433C15.7346 19.5769 15.6602 19.8431 15.6007 20.0423L16.5209 20.3166C16.5828 20.1085 16.6596 19.8335 16.751 19.4912C16.9062 18.9104 17.0505 18.3286 17.1838 17.7457V17.7455ZM11.5198 6.95988V2.87988H12.4798V6.95988H11.5198ZM11.5198 16.9199V21.3599H12.4798V16.9199H11.5198ZM11.5198 14.3999H12.4798V9.47988H11.5198V14.3999Z" fill="black"/>
</g>
</svg>
