<svg width="80" height="64" viewBox="0 0 80 64" fill="none" xmlns="http://www.w3.org/2000/svg">
<path d="M44.5 63V63.5H45H75H75.5V63V33V32.5H75H62.245C63.2065 28.9901 65.0374 25.9464 67.7452 23.3617L67.7456 23.3613C70.739 20.4981 74.5212 18.5366 79.1114 17.4874L79.5 17.3986V17V2V1.38867L78.9008 1.50994C67.6072 3.79556 59.0232 8.78188 53.2022 16.4971C47.3875 24.0705 44.5 33.785 44.5 45.6V63ZM0.5 63V63.5H1H31H31.5V63V33V32.5H31H18.245C19.2065 28.9901 21.0374 25.9464 23.7452 23.3617L23.7456 23.3613C26.739 20.4981 30.5212 18.5366 35.1114 17.4874L35.5 17.3986V17V2V1.38867L34.9008 1.50994C23.6071 3.79557 15.0231 8.78193 9.20207 16.4973C3.38749 24.0707 0.5 33.7851 0.5 45.6V63Z" stroke="#1059D3" stroke-opacity="0.3"/>
</svg>
